<svg version="1.1" id="Layer_1" xmlns="http://www.w3.org/2000/svg" xmlns:xlink="http://www.w3.org/1999/xlink" x="0px" y="0px"
	 width="100%" viewBox="0 0 150 150" enable-background="new 0 0 150 150" xml:space="preserve">
<path fill="#FEFEFE" opacity="1.000000" stroke="none" 
	d="
M106.000000,151.000000 
	C70.666664,151.000000 35.833332,151.000000 1.000000,151.000000 
	C1.000000,101.000000 1.000000,51.000000 1.000000,1.000000 
	C51.000000,1.000000 101.000000,1.000000 151.000000,1.000000 
	C151.000000,51.000000 151.000000,101.000000 151.000000,151.000000 
	C136.166672,151.000000 121.333336,151.000000 106.000000,151.000000 
M84.679420,92.036385 
	C85.110863,92.048027 85.542305,92.059662 86.247124,92.702103 
	C88.380600,96.823669 92.044060,98.523979 96.204506,97.268417 
	C98.719116,96.509544 101.933037,94.294724 102.559349,92.088661 
	C103.215935,89.775940 101.154427,86.691544 100.294174,83.986214 
	C103.464264,83.280708 103.170876,80.315247 100.568733,78.769554 
	C97.904793,77.187157 94.095879,76.438591 91.027519,76.903831 
	C87.071136,77.503731 85.882820,81.106209 86.232140,85.596588 
	C86.176224,85.790512 86.120316,85.984436 85.379372,85.854576 
	C83.438934,82.952530 82.096245,79.181458 79.423988,77.343330 
	C74.931976,74.253479 68.626205,76.527466 66.110329,81.119385 
	C63.350586,86.156395 65.062706,93.602028 69.566994,96.151649 
	C74.810822,99.119888 80.548836,97.509148 84.679420,92.036385 
M26.414053,59.258575 
	C26.781649,61.293739 26.555553,63.771969 27.662560,65.255318 
	C29.147564,67.245155 40.270588,65.746315 42.342690,63.851433 
	C47.118095,59.484421 40.720539,54.582737 42.969181,49.885929 
	C43.382080,49.023506 41.015312,45.799801 39.380394,45.219810 
	C36.670803,44.258583 33.510117,44.596516 30.546034,44.317387 
	C27.551992,44.035435 26.260653,45.313625 26.373331,48.333183 
	C26.497433,51.658760 26.409504,54.992252 26.414053,59.258575 
M45.969955,93.125854 
	C45.969955,94.375298 45.969955,95.624741 45.969955,96.603630 
	C54.253189,99.505318 50.949459,92.367310 52.518543,89.446281 
	C56.903507,91.482338 57.128506,99.965614 65.166588,96.153282 
	C63.355965,93.392021 61.702213,90.869995 60.048466,88.347969 
	C60.459652,88.463120 60.870834,88.578278 61.282017,88.693428 
	C61.889996,86.055908 63.574810,83.021492 62.791668,80.896706 
	C62.063484,78.921021 58.864552,77.185158 56.465256,76.659920 
	C53.201469,75.945442 49.663845,76.481873 45.970688,76.481873 
	C45.970688,82.263100 45.970688,87.237274 45.969955,93.125854 
M104.461548,92.695152 
	C106.269279,96.905334 109.930214,98.301323 113.844543,97.364639 
	C116.411476,96.750397 119.863365,94.724655 120.519447,92.592667 
	C121.256844,90.196449 119.294708,86.969498 118.644745,84.605156 
	C119.029968,83.039925 120.181519,81.127266 119.676277,79.892570 
	C118.190460,76.261520 112.308105,74.972672 108.303070,76.979866 
	C104.077583,79.097542 103.696754,82.128967 106.417068,87.272911 
	C105.447556,89.253662 104.779671,90.618172 104.461548,92.695152 
M38.367088,83.531059 
	C40.173027,83.341599 41.978962,83.152138 43.784901,82.962685 
	C42.923153,81.330383 42.407913,79.324043 41.130398,78.140533 
	C38.098518,75.331764 34.304661,75.316002 30.945555,77.308601 
	C26.968342,79.667870 24.781797,83.514000 25.494837,88.220100 
	C26.144722,92.509392 28.252243,96.094086 32.940937,97.186783 
	C36.994293,98.131409 40.661884,97.416779 42.833328,93.527672 
	C43.425480,92.467117 42.898529,90.781723 42.885174,89.383087 
	C41.291027,89.612442 39.677185,89.751945 38.108170,90.095924 
	C36.475327,90.453896 34.885769,91.009308 33.277283,91.478378 
	C33.012280,88.651009 32.747280,85.823631 32.482281,82.996262 
	C34.297810,82.963692 36.113335,82.931129 38.367088,83.531059 
M82.536362,57.851387 
	C83.204002,56.367905 83.871643,54.884426 84.625130,53.210201 
	C81.072365,52.693512 78.771698,52.358917 76.471024,52.024323 
	C76.521523,51.405720 76.572021,50.787113 76.622513,50.168507 
	C78.663696,50.168507 80.760880,50.449604 82.724106,50.058430 
	C83.824097,49.839256 85.487068,48.505329 85.485710,47.675980 
	C85.483940,46.589138 84.178230,44.662689 83.278847,44.568199 
	C79.821060,44.204899 76.292564,44.298279 72.812416,44.539047 
	C72.079460,44.589748 70.874649,45.965652 70.847664,46.763432 
	C70.661827,52.255695 70.599976,57.762478 70.846313,63.248962 
	C70.887726,64.171326 72.650482,65.748383 73.556847,65.706352 
	C74.585800,65.658638 76.044823,64.299141 76.413857,63.205276 
	C76.908417,61.739304 76.536308,59.980953 76.536308,57.899971 
	C78.450005,57.899971 80.084641,57.899971 82.536362,57.851387 
M62.154728,52.665932 
	C61.363842,52.307350 60.572960,51.948769 59.782074,51.590183 
	C59.886463,51.117229 59.990852,50.644276 60.095242,50.171322 
	C62.171646,50.171322 64.308846,50.464012 66.299362,50.050564 
	C67.328705,49.836761 68.858620,48.312534 68.795845,47.483902 
	C68.713631,46.398815 67.346375,44.604713 66.417549,44.529610 
	C62.376106,44.202824 58.293171,44.389286 53.952156,44.389286 
	C53.952156,51.077732 53.812832,56.880852 54.073509,62.665943 
	C54.123703,63.779827 55.742462,64.823036 56.637611,65.898849 
	C57.734612,64.801910 59.220806,63.879456 59.813892,62.556591 
	C60.355106,61.349430 59.928604,59.708412 59.928604,58.510578 
	C62.684853,56.817024 67.327492,60.033691 67.603142,54.854622 
	C67.637505,54.208889 64.625305,53.401005 62.154728,52.665932 
M51.860901,53.577084 
	C51.861511,52.079006 51.888229,50.580395 51.857918,49.082947 
	C51.760128,44.252171 50.971272,43.731377 45.923931,45.348072 
	C45.923931,51.087582 45.784824,56.908783 46.046623,62.711903 
	C46.096279,63.812565 47.735435,64.841522 48.641186,65.903564 
	C49.720249,64.777222 51.490356,63.781265 51.732655,62.497047 
	C52.217648,59.926502 51.866436,57.198185 51.860901,53.577084 
M126.152489,97.191826 
	C126.973587,95.949936 127.794693,94.708046 128.615784,93.466148 
	C126.963608,92.743469 125.311432,92.020790 123.659256,91.298103 
	C123.149956,91.870537 122.640656,92.442963 122.131355,93.015388 
	C123.191498,94.408546 124.251640,95.801704 126.152489,97.191826 
z"/>
<path fill="#0D0D0D" opacity="1.000000" stroke="none" 
	d="
M86.287659,84.993668 
	C85.882820,81.106209 87.071136,77.503731 91.027519,76.903831 
	C94.095879,76.438591 97.904793,77.187157 100.568733,78.769554 
	C103.170876,80.315247 103.464264,83.280708 100.294174,83.986214 
	C101.154427,86.691544 103.215935,89.775940 102.559349,92.088661 
	C101.933037,94.294724 98.719116,96.509544 96.204506,97.268417 
	C92.044060,98.523979 88.380600,96.823669 86.112709,92.033119 
	C85.684502,90.744804 85.390717,90.125473 85.096931,89.506142 
	C84.742622,90.367615 84.388321,91.229088 84.034019,92.090561 
	C80.548836,97.509148 74.810822,99.119888 69.566994,96.151649 
	C65.062706,93.602028 63.350586,86.156395 66.110329,81.119385 
	C68.626205,76.527466 74.931976,74.253479 79.423988,77.343330 
	C82.096245,79.181458 83.438934,82.952530 85.860001,86.288254 
	C87.360023,87.326851 88.379425,87.931763 89.398819,88.536682 
	C89.612366,88.187202 89.825912,87.837723 90.039452,87.488243 
	C88.788857,86.656715 87.538254,85.825195 86.287659,84.993668 
M70.876877,87.445503 
	C70.980453,90.594002 72.553314,92.987000 75.674072,91.890282 
	C77.260780,91.332672 78.835686,88.301773 78.831741,86.392212 
	C78.828285,84.719200 76.832626,81.908707 75.325935,81.616409 
	C72.121056,80.994667 70.841103,83.554802 70.876877,87.445503 
M93.353065,92.427307 
	C94.760803,91.886337 96.168533,91.345367 97.576271,90.804398 
	C97.405296,90.259422 97.234322,89.714447 97.063347,89.169472 
	C95.299957,89.317963 93.536568,89.466446 91.773178,89.614929 
	C92.174194,90.385704 92.575211,91.156479 93.353065,92.427307 
M93.627083,83.656448 
	C93.881462,83.581764 94.135841,83.507088 94.390221,83.432404 
	C94.114136,83.149925 93.838043,82.867447 93.561951,82.584969 
	C93.481049,82.837502 93.400146,83.090034 93.627083,83.656448 
z"/>
<path fill="#161616" opacity="1.000000" stroke="none" 
	d="
M26.413998,58.790436 
	C26.409504,54.992252 26.497433,51.658760 26.373331,48.333183 
	C26.260653,45.313625 27.551992,44.035435 30.546034,44.317387 
	C33.510117,44.596516 36.670803,44.258583 39.380394,45.219810 
	C41.015312,45.799801 43.382080,49.023506 42.969181,49.885929 
	C40.720539,54.582737 47.118095,59.484421 42.342690,63.851433 
	C40.270588,65.746315 29.147564,67.245155 27.662560,65.255318 
	C26.555553,63.771969 26.781649,61.293739 26.413998,58.790436 
z"/>
<path fill="#101010" opacity="1.000000" stroke="none" 
	d="
M45.970322,92.668655 
	C45.970688,87.237274 45.970688,82.263100 45.970688,76.481873 
	C49.663845,76.481873 53.201469,75.945442 56.465256,76.659920 
	C58.864552,77.185158 62.063484,78.921021 62.791668,80.896706 
	C63.574810,83.021492 61.889996,86.055908 61.282017,88.693428 
	C60.870834,88.578278 60.459652,88.463120 60.048466,88.347969 
	C61.702213,90.869995 63.355965,93.392021 65.166588,96.153282 
	C57.128506,99.965614 56.903507,91.482338 52.518543,89.446281 
	C50.949459,92.367310 54.253189,99.505318 45.969955,96.603630 
	C45.969955,95.624741 45.969955,94.375298 45.970322,92.668655 
z"/>
<path fill="#0F0F0F" opacity="1.000000" stroke="none" 
	d="
M104.286667,92.338913 
	C104.779671,90.618172 105.447556,89.253662 106.417068,87.272911 
	C103.696754,82.128967 104.077583,79.097542 108.303070,76.979866 
	C112.308105,74.972672 118.190460,76.261520 119.676277,79.892570 
	C120.181519,81.127266 119.029968,83.039925 118.644745,84.605156 
	C119.294708,86.969498 121.256844,90.196449 120.519447,92.592667 
	C119.863365,94.724655 116.411476,96.750397 113.844543,97.364639 
	C109.930214,98.301323 106.269279,96.905334 104.286667,92.338913 
z"/>
<path fill="#0F0F0F" opacity="1.000000" stroke="none" 
	d="
M38.147976,83.214813 
	C36.113335,82.931129 34.297810,82.963692 32.482281,82.996262 
	C32.747280,85.823631 33.012280,88.651009 33.277283,91.478378 
	C34.885769,91.009308 36.475327,90.453896 38.108170,90.095924 
	C39.677185,89.751945 41.291027,89.612442 42.885174,89.383087 
	C42.898529,90.781723 43.425480,92.467117 42.833328,93.527672 
	C40.661884,97.416779 36.994293,98.131409 32.940937,97.186783 
	C28.252243,96.094086 26.144722,92.509392 25.494837,88.220100 
	C24.781797,83.514000 26.968342,79.667870 30.945555,77.308601 
	C34.304661,75.316002 38.098518,75.331764 41.130398,78.140533 
	C42.407913,79.324043 42.923153,81.330383 43.784901,82.962685 
	C41.978962,83.152138 40.173027,83.341599 38.147976,83.214813 
z"/>
<path fill="#0B0B0B" opacity="1.000000" stroke="none" 
	d="
M82.127823,57.875679 
	C80.084641,57.899971 78.450005,57.899971 76.536308,57.899971 
	C76.536308,59.980953 76.908417,61.739304 76.413857,63.205276 
	C76.044823,64.299141 74.585800,65.658638 73.556847,65.706352 
	C72.650482,65.748383 70.887726,64.171326 70.846313,63.248962 
	C70.599976,57.762478 70.661827,52.255695 70.847664,46.763432 
	C70.874649,45.965652 72.079460,44.589748 72.812416,44.539047 
	C76.292564,44.298279 79.821060,44.204899 83.278847,44.568199 
	C84.178230,44.662689 85.483940,46.589138 85.485710,47.675980 
	C85.487068,48.505329 83.824097,49.839256 82.724106,50.058430 
	C80.760880,50.449604 78.663696,50.168507 76.622513,50.168507 
	C76.572021,50.787113 76.521523,51.405720 76.471024,52.024323 
	C78.771698,52.358917 81.072365,52.693512 84.625130,53.210201 
	C83.871643,54.884426 83.204002,56.367905 82.127823,57.875679 
z"/>
<path fill="#0E0E0E" opacity="1.000000" stroke="none" 
	d="
M62.589745,52.667091 
	C64.625305,53.401005 67.637505,54.208889 67.603142,54.854622 
	C67.327492,60.033691 62.684853,56.817024 59.928604,58.510578 
	C59.928604,59.708412 60.355106,61.349430 59.813892,62.556591 
	C59.220806,63.879456 57.734612,64.801910 56.637611,65.898849 
	C55.742462,64.823036 54.123703,63.779827 54.073509,62.665943 
	C53.812832,56.880852 53.952156,51.077732 53.952156,44.389286 
	C58.293171,44.389286 62.376106,44.202824 66.417549,44.529610 
	C67.346375,44.604713 68.713631,46.398815 68.795845,47.483902 
	C68.858620,48.312534 67.328705,49.836761 66.299362,50.050564 
	C64.308846,50.464012 62.171646,50.171322 60.095242,50.171322 
	C59.990852,50.644276 59.886463,51.117229 59.782074,51.590183 
	C60.572960,51.948769 61.363842,52.307350 62.589745,52.667091 
z"/>
<path fill="#0F0F0F" opacity="1.000000" stroke="none" 
	d="
M51.860683,54.056046 
	C51.866436,57.198185 52.217648,59.926502 51.732655,62.497047 
	C51.490356,63.781265 49.720249,64.777222 48.641186,65.903564 
	C47.735435,64.841522 46.096279,63.812565 46.046623,62.711903 
	C45.784824,56.908783 45.923931,51.087582 45.923931,45.348072 
	C50.971272,43.731377 51.760128,44.252171 51.857918,49.082947 
	C51.888229,50.580395 51.861511,52.079006 51.860683,54.056046 
z"/>
<path fill="#0A0A0A" opacity="1.000000" stroke="none" 
	d="
M125.732140,97.193344 
	C124.251640,95.801704 123.191498,94.408546 122.131355,93.015388 
	C122.640656,92.442963 123.149956,91.870537 123.659256,91.298103 
	C125.311432,92.020790 126.963608,92.743469 128.615784,93.466156 
	C127.794693,94.708046 126.973587,95.949936 125.732140,97.193344 
z"/>
<path fill="#111111" opacity="1.000000" stroke="none" 
	d="
M86.259903,85.295128 
	C87.538254,85.825195 88.788857,86.656715 90.039452,87.488243 
	C89.825912,87.837723 89.612366,88.187202 89.398819,88.536682 
	C88.379425,87.931763 87.360023,87.326851 86.202515,86.450142 
	C86.120316,85.984436 86.176224,85.790512 86.259903,85.295128 
z"/>
<path fill="#111111" opacity="1.000000" stroke="none" 
	d="
M84.356720,92.063477 
	C84.388321,91.229088 84.742622,90.367615 85.096931,89.506142 
	C85.390717,90.125473 85.684502,90.744804 85.976021,91.717712 
	C85.542305,92.059662 85.110863,92.048027 84.356720,92.063477 
z"/>
<path fill="#F6F6F6" opacity="1.000000" stroke="none" 
	d="
M70.875313,87.030838 
	C70.841103,83.554802 72.121056,80.994667 75.325935,81.616409 
	C76.832626,81.908707 78.828285,84.719200 78.831741,86.392212 
	C78.835686,88.301773 77.260780,91.332672 75.674072,91.890282 
	C72.553314,92.987000 70.980453,90.594002 70.875313,87.030838 
z"/>
<path fill="#111111" opacity="1.000000" stroke="none" 
	d="
M93.164642,92.177284 
	C92.575211,91.156479 92.174194,90.385704 91.773178,89.614929 
	C93.536568,89.466446 95.299957,89.317963 97.063347,89.169472 
	C97.234322,89.714447 97.405296,90.259422 97.576271,90.804398 
	C96.168533,91.345367 94.760803,91.886337 93.164642,92.177284 
z"/>
<path fill="#111111" opacity="1.000000" stroke="none" 
	d="
M93.473160,83.499512 
	C93.400146,83.090034 93.481049,82.837502 93.561951,82.584969 
	C93.838043,82.867447 94.114136,83.149925 94.390221,83.432404 
	C94.135841,83.507088 93.881462,83.581764 93.473160,83.499512 
z"/>
</svg>