<?xml version="1.0" standalone="no"?>
<!DOCTYPE svg PUBLIC "-//W3C//DTD SVG 20010904//EN"
 "http://www.w3.org/TR/2001/REC-SVG-20010904/DTD/svg10.dtd">
<svg version="1.0" xmlns="http://www.w3.org/2000/svg"
 width="150.000000pt" height="150.000000pt" viewBox="0 0 150.000000 150.000000"
 preserveAspectRatio="xMidYMid meet">

<g transform="translate(0.000000,150.000000) scale(0.100000,-0.100000)"
fill="#000000" stroke="none">
<path d="M265 1059 c-5 -7 -10 -52 -11 -100 -4 -107 1 -113 87 -107 72 5 94
24 84 73 -3 17 -5 46 -5 66 1 49 -27 71 -94 77 -37 3 -56 0 -61 -9z m100 -59
c4 -6 -7 -10 -24 -10 -17 0 -31 5 -31 10 0 6 11 10 24 10 14 0 28 -4 31 -10z
m3 -82 c-7 -20 -58 -23 -58 -4 0 11 10 16 31 16 20 0 29 -4 27 -12z"/>
<path d="M454 1057 c-3 -8 -3 -56 -2 -108 3 -93 3 -94 28 -94 25 0 25 1 28 94
3 94 -5 121 -35 121 -7 0 -16 -6 -19 -13z"/>
<path d="M534 1057 c-3 -8 -3 -56 -2 -108 3 -93 3 -94 28 -94 22 0 25 5 28 37
3 35 5 37 40 40 29 2 37 7 37 23 0 16 -8 21 -37 23 -25 2 -38 8 -38 18 0 10
13 14 45 14 37 0 45 3 45 18 0 10 -5 23 -12 30 -17 17 -127 16 -134 -1z"/>
<path d="M707 1063 c-4 -3 -7 -51 -7 -105 0 -79 3 -100 15 -104 24 -10 42 12
37 45 -4 28 -2 30 34 33 32 2 40 7 42 26 3 20 -1 22 -37 22 -30 0 -41 4 -41
15 0 11 12 15 45 15 49 0 67 18 45 45 -13 15 -120 22 -133 8z"/>
<path d="M295 732 c-19 -12 -36 -34 -44 -59 -12 -36 -11 -44 8 -80 22 -44 60
-64 104 -56 33 6 71 47 64 67 -8 21 -53 21 -61 0 -3 -9 -15 -14 -28 -12 -19 2
-24 10 -26 41 -3 36 10 67 29 67 4 0 15 -7 23 -16 17 -17 57 -16 63 2 7 20
-32 55 -67 60 -24 3 -44 -1 -65 -14z"/>
<path d="M463 744 c-9 -4 -13 -35 -13 -105 l0 -100 28 3 c23 3 28 8 32 43 l5
40 30 -42 c22 -31 37 -42 56 -43 38 0 40 8 14 50 -21 33 -22 40 -10 50 19 16
19 74 1 89 -15 12 -124 24 -143 15z m107 -64 c0 -5 -13 -10 -30 -10 -16 0 -30
5 -30 10 0 6 14 10 30 10 17 0 30 -4 30 -10z"/>
<path d="M687 734 c-63 -34 -63 -151 -1 -185 51 -27 122 -8 143 38 25 55 8
124 -38 148 -37 19 -68 19 -104 -1z m77 -47 c12 -9 17 -23 14 -46 -6 -67 -70
-67 -76 0 -3 30 15 59 38 59 3 0 14 -6 24 -13z"/>
<path d="M892 740 c-12 -5 -27 -21 -33 -34 -16 -35 8 -69 60 -85 23 -6 41 -16
41 -21 0 -16 -47 -11 -54 5 -7 20 -56 20 -56 -1 0 -53 65 -85 124 -60 54 22
63 96 13 112 l-22 7 23 8 c25 9 29 41 8 58 -20 17 -77 23 -104 11z m63 -51
c10 -15 2 -19 -23 -12 -12 3 -19 9 -16 14 7 12 31 11 39 -2z"/>
<path d="M1071 738 c-56 -30 -42 -93 27 -116 23 -7 42 -18 42 -23 0 -15 -47
-10 -54 6 -7 20 -56 20 -56 -1 0 -71 123 -96 159 -33 18 33 7 79 -21 87 l-22
5 22 8 c25 9 29 41 8 58 -22 18 -78 23 -105 9z m64 -49 c10 -15 2 -19 -23 -12
-12 3 -19 9 -16 14 7 12 31 11 39 -2z"/>
<path d="M1220 565 c0 -23 4 -26 28 -23 19 2 27 9 27 23 0 14 -8 21 -27 23
-24 3 -28 0 -28 -23z"/>
</g>
</svg>
